<svg width="35" height="32" viewBox="0 0 35 32" fill="none" xmlns="http://www.w3.org/2000/svg">
<path d="M8.98947 21.294C9.16994 20.2863 8.82086 19.2629 8.06774 18.5572L8.06767 18.5571L4.20577 14.9396C2.94153 13.7553 3.60641 11.6555 5.41969 11.4024L5.41971 11.4024L10.7565 10.657L10.7565 10.657C11.7855 10.5131 12.684 9.89076 13.1522 8.98011L13.1523 8.97982L15.5376 4.33287C15.5376 4.3328 15.5376 4.33272 15.5377 4.33265C16.3369 2.77789 18.6621 2.77797 19.4611 4.33279L21.8474 8.98029L21.8475 8.98051C22.3157 9.89124 23.2142 10.5136 24.2431 10.6574L24.2432 10.6574L29.58 11.4028L29.58 11.4028C31.3932 11.6559 32.0581 13.7556 30.794 14.9399C30.7939 14.9399 30.7939 14.9399 30.7939 14.94L26.9311 18.5571L26.931 18.5572C26.1782 19.2625 25.8296 20.2851 26.0092 21.2921L26.0092 21.2921L26.9207 26.4002L26.9207 26.4003C27.2166 28.0563 25.3869 29.4126 23.7467 28.5839L23.7466 28.5838L18.9734 26.1735C18.05 25.7068 16.9488 25.7068 16.0254 26.1735L16.2509 26.6198L16.0253 26.1735L11.2519 28.5855C9.612 29.4141 7.78213 28.0563 8.07795 26.402L8.07798 26.4018L8.98947 21.294ZM8.98947 21.294L8.4973 21.2059L8.98952 21.2937L8.98947 21.294Z" fill="#1D5847" stroke="#1D5847"/>
</svg>
