<svg width="36" height="32" viewBox="0 0 36 32" fill="none" xmlns="http://www.w3.org/2000/svg">
<path d="M22.5251 8.98029L22.5252 8.98051C22.9934 9.89124 23.8919 10.5136 24.9209 10.6574L24.9209 10.6574L30.2577 11.4028L30.2577 11.4028C32.071 11.656 32.7358 13.7557 31.4716 14.94L27.6088 18.5571L27.6087 18.5572C26.856 19.2625 26.5073 20.2851 26.6869 21.2921L26.6869 21.2921L27.5984 26.4002L27.5985 26.4003C27.8943 28.0563 26.0646 29.4126 24.4245 28.5839L24.4244 28.5838L19.6511 26.1735C18.7278 25.7068 17.6265 25.7068 16.7031 26.1735L11.9297 28.5855C10.2897 29.4141 8.45987 28.0563 8.75568 26.402L8.75571 26.4018L9.6672 21.294C9.66722 21.2939 9.66724 21.2938 9.66726 21.2937C9.8476 20.2861 9.49852 19.2629 8.74548 18.5572L8.74541 18.5571L4.8835 14.9396C3.61926 13.7553 4.28415 11.6555 6.09742 11.4024L6.09744 11.4024L11.4342 10.657L11.4343 10.657C12.4633 10.5131 13.3617 9.89076 13.8299 8.98011L13.83 8.97982L16.2153 4.33287C16.2153 4.3328 16.2154 4.33272 16.2154 4.33265C17.0147 2.77789 19.3398 2.77797 20.1389 4.33279L22.5251 8.98029Z" fill="#D9D9D9" stroke="#7C8B9D"/>
</svg>
